<?xml version="1.0" encoding="UTF-8"?>
<svg xmlns="http://www.w3.org/2000/svg" viewBox="0 0 373.993 162.551">
  <defs>
    <style>
      .cls-1 {
        fill: #ffd966;
      }

      .cls-2 {
        fill: #e69138;
      }
    </style>
  </defs>
  <g id="Layer_2" data-name="Layer 2">
    <path class="cls-1" d="m46.826,79c.451-1.659,52.533-61.373,53.179-62.902-7.005-2.553-12.296-3.167-20.183-3.167C43.608,12.93,14.252,42.287,14.252,78.5s29.357,65.57,65.57,65.57c8.369,0,13.704.571,21.063-2.287-.377-.491-53.855-62.07-54.058-62.783"/>
    <path class="cls-2" d="m68.961,73.892c1.089,1.688.802,4.172-.48,5.748.031.162.06.325.104.485.439,1.613-.176,3.637-1.126,4.827,11.086,5.307,21.459,10.178,32.81,15.228,11.469,5.103,22.679,10.451,34.065,15.316,8.672-11.246,11.76-22.473,11.76-37.773,0-13.63-4.108-26.292-11.134-36.845-7.561,3.956-59.505,27.871-67.331,31.382"/>
    <circle class="cls-2" cx="70.726" cy="78.649" r="7.087"/>
  </g>
  <g id="Layer_3" data-name="Layer 3">
    <g>
      <path d="m206.21,11.028v56.006h-6.301V26.71l-8.541,22.962h-.069l-8.541-22.962v40.324h-6.301V11.028h6.44l8.471,24.712,8.401-24.712h6.44Z"/>
      <path d="m232.669,51.072h-10.222l-2.521,15.962h-6.37l10.291-56.006h7.421l10.431,56.006h-6.44l-2.59-15.962Zm-.841-5.39l-4.34-26.673-4.201,26.673h8.541Z"/>
      <path d="m259.688,41.481l-4.41,9.661v15.892h-6.23V11.028h6.23v28.143l12.951-28.143h6.861l-11.552,24.152,12.462,31.854h-6.861l-9.451-25.553Z"/>
      <path d="m289.997,16.979v18.692h11.341v5.881h-11.341v19.532h14.701v5.951h-21.143V11.028h21.143v5.951h-14.701Z"/>
      <path d="m337.317,67.034h-6.441V11.028h6.441v56.006Z"/>
      <path d="m354.045,16.979h-9.171v-5.951h24.782v5.951h-9.171v50.055h-6.44V16.979Z"/>
    </g>
    <g>
      <path d="m206.635,140.821l-4.018,4.018h-21.648l-4.018-4.018v-57.564l4.018-4.019h21.648l4.018,4.019v16.481h-7.544v-13.529h-14.596v51.66h14.596v-13.53h7.544v16.482Z"/>
      <path d="m248.208,83.257v57.564l-4.018,4.018h-21.648l-4.018-4.018v-57.564l4.018-4.019h21.648l4.018,4.019Zm-22.14,2.952v51.66h14.596v-51.66h-14.596Z"/>
      <path d="m288.879,140.821l-4.019,4.018h-20.746l-4.018-4.018v-61.583h7.544v58.631h13.693v-58.631h7.545v61.583Z"/>
      <path d="m330.534,79.238v65.601h-7.79l-15.088-47.643v47.643h-6.97v-65.601h7.79l15.088,47.561v-47.561h6.97Z"/>
      <path d="m350.377,86.209h-10.741v-6.971h29.028v6.971h-10.742v58.63h-7.545v-58.63Z"/>
    </g>
  </g>
</svg>